<svg width="24" height="24" viewBox="0 0 24 24" fill="none" xmlns="http://www.w3.org/2000/svg">
<path d="M20.3899 19.37L16.3799 18L14.9999 22L11.9199 16L8.99986 22L7.61986 18L3.60986 19.37L6.52986 13.37C5.56986 12.17 4.99986 10.65 4.99986 9C4.99986 7.14348 5.73736 5.36301 7.05012 4.05025C8.36287 2.7375 10.1433 2 11.9999 2C13.8564 2 15.6369 2.7375 16.9496 4.05025C18.2624 5.36301 18.9999 7.14348 18.9999 9C18.9999 10.65 18.4299 12.17 17.4699 13.37L20.3899 19.37ZM6.99986 9L9.68986 10.34L9.49986 13.34L11.9999 11.68L14.4999 13.33L14.3299 10.34L16.9999 9L14.3199 7.65L14.4999 4.67L11.9999 6.31L9.49986 4.65L9.66986 7.66L6.99986 9Z" fill="black"/>
</svg>
