<svg width="26" height="26" viewBox="0 0 26 26" fill="none" xmlns="http://www.w3.org/2000/svg">
<path d="M8.33632 17.2652L22.0942 3.63529C22.5217 3.21176 23.0658 3 23.7265 3C24.3871 3 24.9312 3.21176 25.3587 3.63529C25.7862 4.05882 26 4.59785 26 5.25239C26 5.90694 25.7862 6.44597 25.3587 6.8695L9.96861 22.1165C9.50224 22.5785 8.95815 22.8095 8.33632 22.8095C7.7145 22.8095 7.1704 22.5785 6.70404 22.1165L0.641255 16.1101C0.213751 15.6866 0 15.1475 0 14.493C0 13.8384 0.213751 13.2994 0.641255 12.8759C1.06876 12.4524 1.61285 12.2406 2.27354 12.2406C2.93423 12.2406 3.47833 12.4524 3.90583 12.8759L8.33632 17.2652Z" fill="#3B82F6"/>
</svg>
