<svg width="42" height="42" viewBox="0 0 42 42" fill="none" xmlns="http://www.w3.org/2000/svg">
<g clip-path="url(#clip0_276_442)">
<path d="M0 21C0 32.598 9.40201 42 21 42C32.598 42 42 32.598 42 21C42 9.40201 32.598 0 21 0C9.40201 0 0 9.40201 0 21Z" fill="#231E1B"/>
<path fill-rule="evenodd" clip-rule="evenodd" d="M20.9678 10.752C15.1881 10.752 10.5 15.4401 10.5 21.2198C10.5 25.8437 13.5184 29.7612 17.6285 31.1739C18.1422 31.2382 18.3348 30.9171 18.3348 30.6602C18.3348 30.4034 18.3348 29.7612 18.3348 28.8621C15.445 29.5043 14.8028 27.4492 14.8028 27.4492C14.3532 26.2291 13.6469 25.9079 13.6469 25.9079C12.6835 25.2657 13.711 25.2657 13.711 25.2657C14.7386 25.3299 15.3165 26.3574 15.3165 26.3574C16.2799 27.963 17.7569 27.5134 18.3348 27.2565C18.399 26.5501 18.7202 26.1006 18.977 25.8437C16.6651 25.5869 14.2247 24.6877 14.2247 20.6419C14.2247 19.4859 14.6101 18.5868 15.3165 17.8162C15.2523 17.6235 14.867 16.5318 15.445 15.1189C15.445 15.1189 16.344 14.862 18.3348 16.2106C19.1697 15.9538 20.0688 15.8896 20.9678 15.8896C21.867 15.8896 22.7661 16.018 23.601 16.2106C25.5918 14.862 26.4908 15.1189 26.4908 15.1189C27.0689 16.5318 26.6835 17.6235 26.6192 17.8804C27.2614 18.5868 27.7109 19.5502 27.7109 20.7061C27.7109 24.752 25.2706 25.5869 22.9588 25.8437C23.344 26.1648 23.6652 26.807 23.6652 27.7704C23.6652 29.1831 23.6652 30.2749 23.6652 30.6602C23.6652 30.9171 23.8578 31.2382 24.3715 31.1739C28.5458 29.7612 31.5 25.8437 31.5 21.2198C31.4358 15.4401 26.7477 10.752 20.9678 10.752Z" fill="white"/>
</g>
<defs>
<clipPath id="clip0_276_442">
<rect width="42" height="42" fill="white"/>
</clipPath>
</defs>
</svg>
