<svg width="225" height="225" viewBox="0 0 225 225" fill="none" xmlns="http://www.w3.org/2000/svg">
<g clip-path="url(#clip0_379_238)" filter="url(#filter0_d_379_238)">
<path d="M4 108.5C4 168.423 52.5771 217 112.5 217C172.423 217 221 168.423 221 108.5C221 48.5771 172.423 0 112.5 0C52.5771 0 4 48.5771 4 108.5Z" fill="black"/>
<path fill-rule="evenodd" clip-rule="evenodd" d="M112.302 46C76.7984 46 48 74.6836 48 110.046C48 138.337 66.5413 162.305 91.7891 170.949C94.9447 171.343 96.1283 169.377 96.1283 167.806C96.1283 166.234 96.1283 162.305 96.1283 156.804C78.3763 160.734 74.4313 148.16 74.4313 148.16C71.6699 140.695 67.3307 138.73 67.3307 138.73C61.4129 134.8 67.7249 134.8 67.7249 134.8C74.037 135.193 77.587 141.48 77.587 141.48C83.5048 151.304 92.5784 148.552 96.1283 146.981C96.5225 142.659 98.4954 139.909 100.073 138.337C85.8712 136.765 70.8806 131.264 70.8806 106.51C70.8806 99.4372 73.2477 93.9364 77.587 89.2217C77.1927 88.0429 74.8256 81.3633 78.3763 72.7186C78.3763 72.7186 83.8991 71.147 96.1283 79.3982C101.257 77.8267 106.78 77.434 112.302 77.434C117.826 77.434 123.349 78.2194 128.477 79.3982C140.707 71.147 146.229 72.7186 146.229 72.7186C149.78 81.3633 147.413 88.0429 147.018 89.6144C150.963 93.9364 153.724 99.8306 153.724 106.903C153.724 131.657 138.734 136.765 124.532 138.337C126.899 140.301 128.872 144.23 128.872 150.125C128.872 158.769 128.872 165.448 128.872 167.806C128.872 169.377 130.055 171.343 133.211 170.949C158.853 162.305 177 138.337 177 110.046C176.606 74.6836 147.807 46 112.302 46Z" fill="white"/>
</g>
<defs>
<filter id="filter0_d_379_238" x="0" y="0" width="225" height="225" filterUnits="userSpaceOnUse" color-interpolation-filters="sRGB">
<feFlood flood-opacity="0" result="BackgroundImageFix"/>
<feColorMatrix in="SourceAlpha" type="matrix" values="0 0 0 0 0 0 0 0 0 0 0 0 0 0 0 0 0 0 127 0" result="hardAlpha"/>
<feOffset dy="4"/>
<feGaussianBlur stdDeviation="2"/>
<feComposite in2="hardAlpha" operator="out"/>
<feColorMatrix type="matrix" values="0 0 0 0 0 0 0 0 0 0 0 0 0 0 0 0 0 0 0.25 0"/>
<feBlend mode="normal" in2="BackgroundImageFix" result="effect1_dropShadow_379_238"/>
<feBlend mode="normal" in="SourceGraphic" in2="effect1_dropShadow_379_238" result="shape"/>
</filter>
<clipPath id="clip0_379_238">
<rect width="217" height="217" fill="white" transform="translate(4)"/>
</clipPath>
</defs>
</svg>
