<svg width="22" height="22" viewBox="0 0 22 22" fill="none" xmlns="http://www.w3.org/2000/svg">
<g clip-path="url(#clip0_329_416)">
<path d="M20.7625 13.1906L11 20.2856L1.23751 13.1906C1.10663 13.0944 1.00955 12.9592 0.960159 12.8044C0.910764 12.6496 0.911587 12.4832 0.96251 12.3289L2.08084 8.86395L4.31751 1.97978C4.3392 1.92369 4.37374 1.87346 4.41834 1.83311C4.49098 1.76677 4.5858 1.72998 4.68418 1.72998C4.78255 1.72998 4.87737 1.76677 4.95001 1.83311C4.99711 1.87864 5.03182 1.93543 5.05084 1.99811L7.28751 8.86395H14.7125L16.9492 1.97978C16.9709 1.92369 17.0054 1.87346 17.05 1.83311C17.1226 1.76677 17.2175 1.72998 17.3158 1.72998C17.4142 1.72998 17.509 1.76677 17.5817 1.83311C17.6288 1.87864 17.6635 1.93543 17.6825 1.99811L19.9192 8.88228L21.0833 12.3289C21.1297 12.488 21.1235 12.6577 21.0657 12.8129C21.0079 12.9681 20.9016 13.1006 20.7625 13.1906Z" stroke="black" stroke-width="2" stroke-linecap="round" stroke-linejoin="round"/>
</g>
<defs>
<clipPath id="clip0_329_416">
<rect width="22" height="22" fill="white"/>
</clipPath>
</defs>
</svg>
