<svg width="42" height="42" viewBox="0 0 42 42" fill="none" xmlns="http://www.w3.org/2000/svg">
<g clip-path="url(#clip0_307_203)">
<rect x="5" y="9" width="30" height="27" rx="4" fill="white"/>
<path fill-rule="evenodd" clip-rule="evenodd" d="M21 0C9.40205 0 0 9.40205 0 21C0 32.5979 9.40205 42 21 42C32.5979 42 42 32.5979 42 21C42 9.40205 32.5979 0 21 0ZM7 20.6635C7 14.5672 13.268 9.625 21 9.625C28.732 9.625 35 14.5672 35 20.6635C35 26.76 28.732 31.702 21 31.702C20.1514 31.702 19.3204 31.6425 18.5134 31.5283C17.7055 32.0975 13.0383 35.376 12.5978 35.4375C12.5978 35.4375 12.4172 35.5078 12.2636 35.4173C12.11 35.3268 12.1378 35.0897 12.1378 35.0897C12.1842 34.774 13.3478 30.7557 13.5622 30.0162C9.62045 28.0633 7 24.6048 7 20.6635Z" fill="#381F1F"/>
<path fill-rule="evenodd" clip-rule="evenodd" d="M13.2596 24.5169C12.8141 24.5169 12.4519 24.1709 12.4519 23.7455V18.9472H11.1916C10.7544 18.9472 10.3989 18.5923 10.3989 18.1562C10.3989 17.7202 10.7546 17.3654 11.1916 17.3654H15.3275C15.7646 17.3654 16.1201 17.7202 16.1201 18.1562C16.1201 18.5923 15.7644 18.9472 15.3275 18.9472H14.0672V23.7455C14.0672 24.1709 13.7049 24.5169 13.2596 24.5169ZM20.3419 24.5064C20.0051 24.5064 19.7474 24.3696 19.6698 24.1496L19.2699 23.1026L16.8069 23.1024L16.4067 24.1502C16.3293 24.3697 16.0718 24.5064 15.7349 24.5064C15.5578 24.5066 15.3827 24.4685 15.2216 24.3949C14.9989 24.2922 14.7849 24.0097 15.0301 23.248L16.9621 18.1627C17.0982 17.776 17.5116 17.3775 18.0377 17.3655C18.5652 17.3774 18.9787 17.776 19.1151 18.1635L21.0462 23.2465C21.292 24.01 21.078 24.2926 20.8554 24.395C20.6942 24.4685 20.5191 24.5065 20.3419 24.5064ZM18.8451 21.6719L18.0384 19.3801L17.2316 21.6719H18.8451ZM22.3461 24.3991C21.9192 24.3991 21.5721 24.0669 21.5721 23.6587V18.1731C21.5721 17.7277 21.9419 17.3654 22.3966 17.3654C22.8511 17.3654 23.2211 17.7277 23.2211 18.1731V22.9183H24.9374C25.3642 22.9183 25.7114 23.2505 25.7114 23.6587C25.7114 24.0669 25.3642 24.3991 24.9374 24.3991H22.3461ZM26.8334 24.5064C26.3879 24.5064 26.0256 24.1441 26.0256 23.6987V18.1731C26.0256 17.7277 26.3879 17.3654 26.8334 17.3654C27.2787 17.3654 27.641 17.7277 27.641 18.1731V19.9091L29.8945 17.6557C30.0104 17.5397 30.1696 17.4759 30.3425 17.4759C30.5441 17.4759 30.7466 17.5629 30.8983 17.7145C31.0398 17.8559 31.1242 18.0377 31.1357 18.2265C31.1475 18.417 31.0841 18.5916 30.9576 18.7183L29.1169 20.5586L31.1051 23.1925C31.1692 23.277 31.2161 23.3734 31.2427 23.4762C31.2693 23.5789 31.2752 23.6858 31.2602 23.7909C31.2457 23.896 31.2106 23.9972 31.1568 24.0887C31.1031 24.1801 31.0317 24.2599 30.9468 24.3235C30.8071 24.4297 30.6364 24.487 30.4609 24.4866C30.3358 24.4871 30.2123 24.4584 30.1003 24.4027C29.9882 24.3469 29.8908 24.2657 29.8157 24.1655L27.9216 21.6557L27.6413 21.936V23.6982C27.6411 23.9125 27.5558 24.1179 27.4044 24.2693C27.2529 24.4208 27.0476 24.506 26.8334 24.5064Z" fill="#381F1F"/>
</g>
<defs>
<clipPath id="clip0_307_203">
<rect width="42" height="42" fill="white"/>
</clipPath>
</defs>
</svg>
