<svg width="42" height="42" viewBox="0 0 42 42" fill="none" xmlns="http://www.w3.org/2000/svg">
<g clip-path="url(#clip0_276_445)">
<path d="M0 21C0 32.598 9.40201 42 21 42C32.598 42 42 32.598 42 21C42 9.40201 32.598 0 21 0C9.40201 0 0 9.40201 0 21Z" fill="#2867B2"/>
<path d="M15.225 31.5H10.7625V17.4563H15.225V31.5ZM12.9937 15.4875C11.55 15.4875 10.5 14.4375 10.5 12.9937C10.5 11.55 11.6812 10.5 12.9937 10.5C14.4375 10.5 15.4875 11.55 15.4875 12.9937C15.4875 14.4375 14.4375 15.4875 12.9937 15.4875ZM31.5 31.5H27.0375V23.8875C27.0375 21.6563 26.1187 21 24.8062 21C23.4937 21 22.1812 22.05 22.1812 24.0187V31.5H17.7188V17.4563H21.9188V19.425C22.3125 18.5063 23.8875 17.0625 26.1187 17.0625C28.6125 17.0625 31.2375 18.5062 31.2375 22.8375V31.5H31.5Z" fill="white"/>
</g>
<defs>
<clipPath id="clip0_276_445">
<rect width="42" height="42" fill="white"/>
</clipPath>
</defs>
</svg>
