<svg width="42" height="42" viewBox="0 0 42 42" fill="none" xmlns="http://www.w3.org/2000/svg">
<g clip-path="url(#clip0_276_448)">
<path d="M0 21C0 32.598 9.40201 42 21 42C32.598 42 42 32.598 42 21C42 9.40201 32.598 0 21 0C9.40201 0 0 9.40201 0 21Z" fill="#EA4335"/>
<path d="M30.6 13H11.4C10.08 13 9.012 13.9562 9.012 15.125L9 27.875C9 29.0438 10.08 30 11.4 30H30.6C31.92 30 33 29.0438 33 27.875V15.125C33 13.9562 31.92 13 30.6 13ZM30.6 17.25L21 22.5625L11.4 17.25V15.125L21 20.4375L30.6 15.125V17.25Z" fill="white"/>
</g>
<defs>
<clipPath id="clip0_276_448">
<rect width="42" height="42" fill="white"/>
</clipPath>
</defs>
</svg>
