<svg width="22" height="22" viewBox="0 0 22 22" fill="none" xmlns="http://www.w3.org/2000/svg">
<path d="M17.5 3.5H15.5C15.2239 3.5 14.951 3.02614 14.951 2.75C14.951 2.47386 15.2239 2 15.5 2H19.5C19.7761 2 20 2.22386 20 2.5V6.5C20 6.77614 19.5261 7 19.25 7C18.9739 7 18.5 6.77614 18.5 6.5V4.5L14 9C13.8047 9.19526 13.1953 9.19526 13 9C12.8047 8.80474 12.8047 8.19526 13 8L17.5 3.5ZM18.5 10.5C18.5 10.2239 18.9739 10 19.25 10C19.5261 10 20 10.2239 20 10.5V17.5C20 18.8807 18.8807 20 17.5 20H4.5C3.11929 20 2 18.8807 2 17.5V4.5C2 3.11929 3.11929 2 4.5 2H11.5C11.7761 2 12 2.47386 12 2.75C12 3.02614 11.7761 3.5 11.5 3.5H4.5C4 3.5 3.5 4 3.5 4.5V17.5C3.5 18 4 18.5 4.5 18.5H17.5C18 18.5 18.5 18 18.5 17.5V10.5Z" fill="black"/>
</svg>
