<svg width="22" height="22" viewBox="0 0 22 22" fill="none" xmlns="http://www.w3.org/2000/svg">
<path d="M8.24984 4.5835C9.2223 4.5835 10.1549 4.9698 10.8426 5.65744C11.5302 6.34507 11.9165 7.2777 11.9165 8.25016C11.9165 9.22262 11.5302 10.1553 10.8426 10.8429C10.1549 11.5305 9.2223 11.9168 8.24984 11.9168C7.27738 11.9168 6.34475 11.5305 5.65711 10.8429C4.96948 10.1553 4.58317 9.22262 4.58317 8.25016C4.58317 7.2777 4.96948 6.34507 5.65711 5.65744C6.34475 4.9698 7.27738 4.5835 8.24984 4.5835M8.24984 13.7502C10.6973 13.7502 15.5832 14.9785 15.5832 17.4168V19.2502H0.916504V17.4168C0.916504 14.9785 5.80234 13.7502 8.24984 13.7502ZM15.3632 4.9135C17.2148 6.93016 17.2148 9.726 15.3632 11.5777L13.8232 10.0285C14.5932 8.94683 14.5932 7.54433 13.8232 6.46266L15.3632 4.9135ZM18.3973 1.8335C21.9998 5.546 21.9723 11.101 18.3973 14.6668L16.9032 13.1727C19.4423 10.2577 19.4423 6.096 16.9032 3.32766L18.3973 1.8335Z" fill="#0F2E6F"/>
</svg>
