<svg width="1920" height="1080" viewBox="0 0 1920 1080" fill="none" xmlns="http://www.w3.org/2000/svg">
<g clip-path="url(#clip0_336_153)">
<ellipse rx="286.109" ry="235.559" transform="matrix(-0.994376 0.105903 0.105903 0.994376 585.215 800.728)" fill="#F7F9FF" fill-opacity="0.45"/>
<ellipse rx="286.109" ry="235.559" transform="matrix(-0.994376 0.105903 0.105903 0.994376 585.215 800.728)" fill="#F7F9FF" fill-opacity="0.45"/>
<ellipse rx="286.109" ry="235.559" transform="matrix(-0.994376 0.105903 0.105903 0.994376 585.215 800.728)" fill="#F7F9FF" fill-opacity="0.45"/>
<ellipse rx="286.109" ry="235.559" transform="matrix(-0.994376 0.105903 0.105903 0.994376 585.215 800.728)" fill="#F7F9FF" fill-opacity="0.45"/>
<ellipse rx="286.109" ry="235.559" transform="matrix(-0.994376 0.105903 0.105903 0.994376 289.416 691.277)" fill="#F7F9FF" fill-opacity="0.45"/>
<ellipse rx="286.109" ry="235.559" transform="matrix(-0.994376 0.105903 0.105903 0.994376 289.416 691.277)" fill="#F7F9FF" fill-opacity="0.45"/>
<ellipse rx="286.109" ry="235.559" transform="matrix(-0.994376 0.105903 0.105903 0.994376 289.416 691.277)" fill="#F7F9FF" fill-opacity="0.45"/>
<ellipse rx="286.109" ry="235.559" transform="matrix(-0.994376 0.105903 0.105903 0.994376 289.416 691.277)" fill="#F7F9FF" fill-opacity="0.45"/>
<ellipse rx="538.794" ry="443.6" transform="matrix(-0.994376 0.105903 0.105903 0.994376 -200.257 482.552)" fill="#F7F9FF" fill-opacity="0.45"/>
<ellipse rx="538.794" ry="443.6" transform="matrix(-0.994376 0.105903 0.105903 0.994376 -200.257 482.552)" fill="#F7F9FF" fill-opacity="0.45"/>
<ellipse rx="538.794" ry="443.6" transform="matrix(-0.994376 0.105903 0.105903 0.994376 -200.257 482.552)" fill="#F7F9FF" fill-opacity="0.45"/>
<ellipse rx="538.794" ry="443.6" transform="matrix(-0.994376 0.105903 0.105903 0.994376 -200.257 482.552)" fill="#F7F9FF" fill-opacity="0.45"/>
<ellipse rx="538.794" ry="443.6" transform="matrix(-0.994376 0.105903 0.105903 0.994376 -46.8405 963.611)" fill="#F7F9FF" fill-opacity="0.45"/>
<ellipse rx="538.794" ry="443.6" transform="matrix(-0.994376 0.105903 0.105903 0.994376 -46.8405 963.611)" fill="#F7F9FF" fill-opacity="0.45"/>
<ellipse rx="538.794" ry="443.6" transform="matrix(-0.994376 0.105903 0.105903 0.994376 -46.8405 963.611)" fill="#F7F9FF" fill-opacity="0.45"/>
<ellipse rx="538.794" ry="443.6" transform="matrix(-0.994376 0.105903 0.105903 0.994376 -46.8405 963.611)" fill="#F7F9FF" fill-opacity="0.45"/>
<ellipse cx="1272.54" cy="813.728" rx="286.109" ry="235.559" transform="rotate(6.07919 1272.54 813.728)" fill="#F4F8FF"/>
<ellipse cx="1272.54" cy="813.728" rx="286.109" ry="235.559" transform="rotate(6.07919 1272.54 813.728)" fill="#F4F8FF"/>
<ellipse cx="1272.54" cy="813.728" rx="286.109" ry="235.559" transform="rotate(6.07919 1272.54 813.728)" fill="#F4F8FF"/>
<ellipse cx="1272.54" cy="813.728" rx="286.109" ry="235.559" transform="rotate(6.07919 1272.54 813.728)" fill="#F4F8FF"/>
<ellipse cx="1568.34" cy="704.277" rx="286.109" ry="235.559" transform="rotate(6.07919 1568.34 704.277)" fill="#F4F8FF"/>
<ellipse cx="1568.34" cy="704.277" rx="286.109" ry="235.559" transform="rotate(6.07919 1568.34 704.277)" fill="#F4F8FF"/>
<ellipse cx="1568.34" cy="704.277" rx="286.109" ry="235.559" transform="rotate(6.07919 1568.34 704.277)" fill="#F4F8FF"/>
<ellipse cx="1568.34" cy="704.277" rx="286.109" ry="235.559" transform="rotate(6.07919 1568.34 704.277)" fill="#F4F8FF"/>
<ellipse cx="2058.01" cy="495.552" rx="538.794" ry="443.6" transform="rotate(6.07919 2058.01 495.552)" fill="#F4F8FF"/>
<ellipse cx="2058.01" cy="495.552" rx="538.794" ry="443.6" transform="rotate(6.07919 2058.01 495.552)" fill="#F4F8FF"/>
<ellipse cx="2058.01" cy="495.552" rx="538.794" ry="443.6" transform="rotate(6.07919 2058.01 495.552)" fill="#F4F8FF"/>
<ellipse cx="2058.01" cy="495.552" rx="538.794" ry="443.6" transform="rotate(6.07919 2058.01 495.552)" fill="#F4F8FF"/>
<ellipse cx="1904.6" cy="976.611" rx="538.794" ry="443.6" transform="rotate(6.07919 1904.6 976.611)" fill="#F4F8FF"/>
<ellipse cx="1904.6" cy="976.611" rx="538.794" ry="443.6" transform="rotate(6.07919 1904.6 976.611)" fill="#F4F8FF"/>
<ellipse cx="1904.6" cy="976.611" rx="538.794" ry="443.6" transform="rotate(6.07919 1904.6 976.611)" fill="#F4F8FF"/>
<ellipse cx="1904.6" cy="976.611" rx="538.794" ry="443.6" transform="rotate(6.07919 1904.6 976.611)" fill="#F4F8FF"/>
<g filter="url(#filter0_d_336_153)">
<ellipse cx="907" cy="1098" rx="1347" ry="383" fill="#CDDFFC"/>
</g>
<circle r="197.165" transform="matrix(-0.983011 0.183544 0.183544 0.983011 588.856 1107.94)" fill="#88B1FF"/>
<circle r="197.165" transform="matrix(-0.983011 0.183544 0.183544 0.983011 375.924 1028.35)" fill="#88B1FF"/>
<circle r="371.296" transform="matrix(-0.983011 0.183544 0.183544 0.983011 21.1973 873.706)" fill="#88B1FF"/>
<circle r="371.296" transform="matrix(-0.983011 0.183544 0.183544 0.983011 166.013 1267.81)" fill="#88B1FF"/>
<circle r="156.617" transform="matrix(-0.983011 0.183544 0.183544 0.983011 472.977 1095.82)" fill="#6399FF"/>
<circle r="156.617" transform="matrix(-0.983011 0.183544 0.183544 0.983011 303.835 1032.6)" fill="#6399FF"/>
<circle r="294.937" transform="matrix(-0.983011 0.183544 0.183544 0.983011 22.0605 909.762)" fill="#6399FF"/>
<circle r="294.937" transform="matrix(-0.983011 0.183544 0.183544 0.983011 137.094 1222.81)" fill="#6399FF"/>
<ellipse cx="1387.99" cy="1062.02" rx="270.342" ry="235.559" transform="rotate(7.23095 1387.99 1062.02)" fill="#88B1FF"/>
<ellipse cx="1670.48" cy="956.579" rx="270.342" ry="235.559" transform="rotate(7.23095 1670.48 956.579)" fill="#88B1FF"/>
<ellipse cx="2138.84" cy="754.515" rx="509.102" ry="443.6" transform="rotate(7.23095 2138.84 754.515)" fill="#88B1FF"/>
<ellipse cx="1981.34" cy="1233.1" rx="509.102" ry="443.6" transform="rotate(7.23095 1981.34 1233.1)" fill="#88B1FF"/>
<ellipse cx="1501.94" cy="1040.28" rx="225.245" ry="196.264" transform="rotate(7.23095 1501.94 1040.28)" fill="#6399FF"/>
<ellipse cx="1737.31" cy="952.427" rx="225.245" ry="196.264" transform="rotate(7.23095 1737.31 952.427)" fill="#6399FF"/>
<ellipse cx="2127.54" cy="784.071" rx="424.176" ry="369.601" transform="rotate(7.23095 2127.54 784.071)" fill="#6399FF"/>
<ellipse cx="1996.31" cy="1182.82" rx="424.176" ry="369.601" transform="rotate(7.23095 1996.31 1182.82)" fill="#6399FF"/>
</g>
<defs>
<filter id="filter0_d_336_153" x="-444" y="715" width="2702" height="774" filterUnits="userSpaceOnUse" color-interpolation-filters="sRGB">
<feFlood flood-opacity="0" result="BackgroundImageFix"/>
<feColorMatrix in="SourceAlpha" type="matrix" values="0 0 0 0 0 0 0 0 0 0 0 0 0 0 0 0 0 0 127 0" result="hardAlpha"/>
<feOffset dy="4"/>
<feGaussianBlur stdDeviation="2"/>
<feComposite in2="hardAlpha" operator="out"/>
<feColorMatrix type="matrix" values="0 0 0 0 0 0 0 0 0 0 0 0 0 0 0 0 0 0 0.25 0"/>
<feBlend mode="normal" in2="BackgroundImageFix" result="effect1_dropShadow_336_153"/>
<feBlend mode="normal" in="SourceGraphic" in2="effect1_dropShadow_336_153" result="shape"/>
</filter>
<clipPath id="clip0_336_153">
<rect width="1920" height="1080" fill="white"/>
</clipPath>
</defs>
</svg>
